<?xml version="1.0" encoding="utf-8"?>
<!-- Generator: Adobe Illustrator 26.1.0, SVG Export Plug-In . SVG Version: 6.00 Build 0)  -->
<svg version="1.1" id="Layer_1" xmlns="http://www.w3.org/2000/svg" xmlns:xlink="http://www.w3.org/1999/xlink" x="0px" y="0px"
	 viewBox="0 0 216 216" style="enable-background:new 0 0 216 216;" xml:space="preserve">
<style type="text/css">
	.st0{display:none;fill:#FAC739;}
	.st1{fill:none;stroke:#FAC739;stroke-width:3;stroke-miterlimit:10;}
	.st2{fill:#FAC739;stroke:#FAC739;stroke-width:3;stroke-miterlimit:10;}
</style>
<path class="st0" d="M171.6,97.2c-7.1-3.7-14.7-5.2-16.7-5.7c4.6-3.5,20.7-15.8,26.9-22c7.2-7.2,16.2-32.2,16.5-32.9
	c-0.5,0.4-11.8,10.2-24.3,15.2c-8.6,3.4-26.8,9.2-41.3,13.1c2.3-8.1,5.2-19.2,6.2-25.2c1.6-10.3-6.3-36.3-6.3-36.3
	s-3.2,15-10.6,26.6c-6.2,9.8-22,31.3-32,42.9c-6.6,1-12.9,1.7-18,1.8c-11.9,0.2-21-6.9-21.4-7.2c0.2,0.4,3.4,7.2,7.5,16.1
	c4.3,9.1,8.9,13.1,8.9,13.1h0.1c-4.8,4.7-7.6,8.4-11.7,11.5c-9.5,7.2-23.6,0.3-24.2,0c0.5,0.6,11.7,13.1,16.2,16.1
	c4.7,3.1,7.3,3.4,9.8,4.1l-0.9,0.2c0,0-18.2,18.7-24.3,27.1c-6,8.2-11,34.3-11.2,35.1c0.3-0.4,10-11.9,21.7-18.8
	c6.4-3.8,18.7-10,30.4-15.5c-2.2,5.7-4.3,11.4-5.4,15.2c-2.8,10,2,36.8,2,36.8s5-14.5,13.6-25.2c8.6-10.7,32.8-36.3,42.3-43.7
	c1.4-1.1,2.9-2.3,4.6-3.7c3.5-0.9,6.8-1.7,9.7-2.2c11.7-2,21.8,3.6,22.3,3.9c-0.2-0.4-4.5-6.7-9.9-14.7c-0.7-1-2.1-2.9-2.1-2.9
	s7.8-9.9,10.9-11.8c10.2-6.1,22.4-0.2,23,0C183.7,107.6,178.5,100.8,171.6,97.2L171.6,97.2z M113.7,113.4l-5.8,16.5l-5.8-16.3
	L86,108l16.3-6.2l5.6-16.2l5.9,16.4l16.5,6L113.7,113.4L113.7,113.4z"/>
<polygon class="st1" points="207,83.7 207.5,198.2 10.5,198.2 11,83.7 105.2,140 112.9,140 "/>
<path class="st2" d="M207,83.7L112.9,140h-7.7L11,83.7c-0.9-0.5-0.5-1.9,0.5-1.9h195C207.5,81.8,207.9,83.1,207,83.7z"/>
<path class="st1" d="M207,81.8l-98-60l0,0l-98,60c-0.9,0.5-0.5,1.9,0.5,1.9h195C207.5,83.7,207.9,82.3,207,81.8z"/>
</svg>
