<?xml version="1.0" encoding="UTF-8"?><svg id="Layer_1" xmlns="http://www.w3.org/2000/svg" viewBox="0 0 216 216"><defs><style>.cls-1{fill:#fac739;}</style></defs><path class="cls-1" d="m171.56,97.17c-7.11-3.69-14.71-5.18-16.72-5.74,4.62-3.5,20.67-15.77,26.91-22.04,7.24-7.23,16.2-32.17,16.48-32.94-.51.44-11.78,10.23-24.3,15.19-8.64,3.41-26.78,9.16-41.31,13.08,2.3-8.13,5.24-19.19,6.16-25.21,1.56-10.27-6.27-36.32-6.27-36.32,0,0-3.23,14.99-10.57,26.64-6.15,9.81-22.03,31.3-31.99,42.95-6.56.96-12.91,1.68-17.98,1.76-11.87.21-21-6.91-21.44-7.25.19.41,3.39,7.25,7.52,16.08,4.26,9.08,8.94,13.08,8.94,13.08h.07c-4.79,4.72-7.57,8.4-11.67,11.51-9.48,7.21-23.62.31-24.21.01.53.6,11.7,13.08,16.25,16.1,4.66,3.1,7.29,3.39,9.85,4.15l-.9.19s-18.19,18.69-24.32,27.07c-6.03,8.25-11.03,34.27-11.18,35.1.29-.36,9.97-11.9,21.67-18.75,6.44-3.78,18.71-10.01,30.44-15.48-2.24,5.7-4.34,11.42-5.36,15.19-2.75,10.01,2,36.8,2,36.8,0,0,4.98-14.51,13.6-25.23,8.62-10.74,32.83-36.31,42.28-43.73,1.41-1.1,2.95-2.34,4.58-3.66,3.5-.94,6.77-1.73,9.68-2.24,11.7-2.04,21.84,3.62,22.31,3.89-.25-.4-4.49-6.67-9.92-14.72-.69-1.04-2.05-2.87-2.05-2.87,0,0,7.75-9.94,10.87-11.8,10.25-6.07,22.45-.25,22.96-.01-.28-.39-5.46-7.2-12.36-10.78Zm-57.87,16.2l-5.75,16.53-5.76-16.3-16.17-5.63,16.32-6.23,5.62-16.21,5.91,16.44,16.54,6.02-16.7,5.39Z"/></svg>